<?xml version="1.0" encoding="UTF-8" standalone="no"?>
<!-- Created with Inkscape (http://www.inkscape.org/) -->

<svg
   width="353.6597mm"
   height="212.54858mm"
   viewBox="0 0 353.6597 212.54858"
   version="1.1"
   id="svg3990"
   inkscape:export-filename="frame1.svg"
   inkscape:export-xdpi="96"
   inkscape:export-ydpi="96"
   xmlns:inkscape="http://www.inkscape.org/namespaces/inkscape"
   xmlns:sodipodi="http://sodipodi.sourceforge.net/DTD/sodipodi-0.dtd"
   xmlns="http://www.w3.org/2000/svg"
   xmlns:svg="http://www.w3.org/2000/svg">
  <sodipodi:namedview
     id="namedview3992"
     pagecolor="#ffffff"
     bordercolor="#000000"
     borderopacity="0.25"
     inkscape:showpageshadow="2"
     inkscape:pageopacity="0.0"
     inkscape:pagecheckerboard="0"
     inkscape:deskcolor="#d1d1d1"
     inkscape:document-units="mm"
     showgrid="false" />
  <defs
     id="defs3987" />
  <g
     inkscape:label="Layer 1"
     inkscape:groupmode="layer"
     id="layer1"
     transform="translate(-244.75913,-71.170614)">
    <path
       fill-rule="nonzero"
       fill="#000000"
       fill-opacity="1"
       d="m 259.49447,282.83727 h 260.70278 l 77.33964,-70.31164 V 92.961524 L 576.62793,72.052564 H 294.77225 l -35.02007,35.020066 v 49.38889 l -14.11111,14.11111 v 98.41124 z m 261.0418,0.88195 H 259.12794 L 244.75912,269.3504 v -99.14431 l 14.11111,-14.11111 v -49.38889 l 35.53548,-35.535476 h 282.58876 l 21.42437,21.42437 V 212.91975 l -0.14471,0.13092 -77.73786,70.66855"
       id="path1630"
       style="stroke-width:0.352778" />
    <path
       fill-rule="nonzero"
       fill="#000000"
       fill-opacity="1"
       d="m 322.8112,75.139364 h 63.5 l 3.52778,3.52778 h 81.13889 l 3.52778,-3.52778 H 576.8112 l 21.16667,21.16667 v -3.52778 L 576.8112,71.611584 H 294.58898 l -3.52777,3.52778 h 31.74999"
       id="path1632"
       style="stroke-width:0.352778" />
    <path
       fill-rule="nonzero"
       fill="#000000"
       fill-opacity="1"
       d="m 259.31121,156.27825 -14.11111,14.11111 v 98.77777 l 14.11111,14.11112 v -3.52778 l -10.58334,-10.58334 v -38.80555 l 3.52778,-3.52778 v -31.75 l -3.52778,-3.52777 v -21.16667 l 14.11111,-14.11111 v -52.91667 l -3.52777,3.52778 v 49.38889"
       id="path1634"
       style="stroke-width:0.352778" />
    <path
       fill-rule="nonzero"
       fill="#000000"
       fill-opacity="1"
       d="m 597.97787,209.19491 -81.13889,74.08334 h 3.52778 l 77.61111,-70.55556 v -3.52778"
       id="path1636"
       style="stroke-width:0.352778" />
    <path
       fill-rule="nonzero"
       fill="#000000"
       fill-opacity="1"
       d="M 428.64454,276.22269 H 266.36676 v -7.05556 h 162.27778 v 7.05556"
       id="path1670"
       style="stroke-width:0.352778" />
    <path
       fill-rule="nonzero"
       fill="#000000"
       fill-opacity="1"
       d="m 296.3322,87.818694 c -6.99216,0 -12.68346,5.68992 -12.68346,12.684826 0,6.99219 5.6913,12.68349 12.68346,12.68349 6.99491,0 12.68483,-5.6913 12.68483,-12.68349 0,-6.994906 -5.68992,-12.684826 -12.68483,-12.684826 z m 0,26.126226 c -7.41246,0 -13.4414,-6.02891 -13.4414,-13.4414 0,-7.415206 6.02894,-13.444116 13.4414,-13.444116 7.41108,0 13.44415,6.02891 13.44415,13.444116 0,7.41249 -6.03307,13.4414 -13.44415,13.4414"
       id="path1694"
       style="stroke-width:0.352778" />
    <path
       fill-rule="nonzero"
       fill="#000000"
       fill-opacity="1"
       d="m 288.88114,100.2541 v 0.49749 h -7.26775 v -0.49749 h 7.26775"
       id="path1696"
       style="stroke-width:0.352778" />
    <path
       fill-rule="nonzero"
       fill="#000000"
       fill-opacity="1"
       d="m 312.22787,100.25686 v 0.49473 h -7.27054 v -0.49473 h 7.27054"
       id="path1698"
       style="stroke-width:0.352778" />
    <path
       fill-rule="nonzero"
       fill="#000000"
       fill-opacity="1"
       d="m 296.3322,105.69736 c -2.86494,0 -5.19381,-2.32474 -5.19381,-5.19384 0,-2.867696 2.32887,-5.195176 5.19381,-5.195176 2.86769,0 5.19934,2.32748 5.19934,5.195176 0,2.8691 -2.33165,5.19384 -5.19934,5.19384 z m 2.63895,-14.809786 -1.10105,-2.20211 h -3.07305 l -1.10102,2.20211 c -4.22232,1.15344 -7.3298,5.02296 -7.3298,9.615946 0,4.59027 3.10748,8.45979 7.3298,9.61736 l 1.10102,2.19794 h 3.07305 l 1.10105,-2.19794 c 4.22229,-1.15757 7.3339,-5.02709 7.3339,-9.61736 0,-4.592986 -3.11161,-8.462506 -7.3339,-9.615946"
       id="path1700"
       style="stroke-width:0.352778" />
  </g>
</svg>
