<?xml version="1.0" encoding="UTF-8"?>
<svg viewBox="0 0 1024 1024" height="1024" width="1024" xmlns="http://www.w3.org/2000/svg" xmlns:svg="http://www.w3.org/2000/svg">
<rect fill="#cd0200" width="1024" height="1024" x="0" y="0"/>
<path fill="#ffd800" d="M813,830L829,813C875,768 849,752 849,752C769,704 729,729 729,729C729,729 704,769 752,850C752,850 768,875 813,830M787,905C706,834 702,782 702,782C701,771 688,744 688,744C661,700 619,680 628,678C629,678 630,678 632,677C642,672 657,657 657,657C657,657 671,642 677,632C677,631 678,629 678,628C680,619 700,661 744,688C744,688 771,701 781,702C781,702 834,707 905,787C905,787 923,803 871,855L855,871C806,920 787,905 787,905M145,145C173,117 263,139 263,139C321,155 444,286 444,286C444,286 433,296 406,325C378,353 414,387 414,387L671,627C666,637 652,652 652,652C652,652 637,667 627,672L387,414C387,414 353,379 324,406C296,433 286,444 286,444C286,444 155,321 139,263C139,263 117,174 145,145M456,507L222,761L254,790L486,538C476,528 466,517 456,507M536,484L606,407L574,378L504,454C515,464 525,474 536,484M740,184C751,222 726,214 719,222L707,234L739,263L750,251C757,243 747,219 786,226C895,90 867,64 740,184M774,316L740,283L686,341L721,374C721,374 791,449 643,481C801,600 1005,378 875,229C855,380 774,316 774,316M687,235L649,199L596,257L634,293ZM729,274L698,244L623,325L655,354ZM599,323L570,354L630,410L659,378ZM198,759L169,790L229,845L258,814ZM205,843L147,906L115,877L174,814Z"/>
</svg>
