<?xml version="1.0" encoding="UTF-8" standalone="no"?>
<!-- Created with Inkscape (http://www.inkscape.org/) -->

<svg
   xml:space="preserve"
   id="svg5"
   version="1.1"
   viewBox="0 0 1024 1024"
   height="1024"
   width="1024"
   xmlns="http://www.w3.org/2000/svg"
   xmlns:svg="http://www.w3.org/2000/svg"><defs
     id="defs2" /><rect
     style="display:inline;fill:#cd0200;fill-opacity:1;stroke:none;stroke-width:1;stroke-dasharray:none;stroke-opacity:1"
     id="rect6539"
     width="1024"
     height="1024"
     x="0"
     y="0" /><path
     id="path1035"
     style="display:inline;fill:#ffd800;fill-opacity:1;stroke-width:1.24441"
     d="m 813.12236,829.50195 16.23556,-16.23577 c 45.16303,-45.16313 20.09515,-60.8543 20.09515,-60.8543 C 768.7371,704.478 728.89194,729.03813 728.89194,729.03813 c 0,0 -24.56235,39.84298 23.37141,120.56403 0,0 15.69599,25.06308 60.85901,-20.10021 z m -26.18104,75.85506 c -80.47293,-71.10606 -85.12484,-123.76966 -85.12484,-123.76966 -1.04996,-10.41703 -13.5669,-37.37104 -13.5669,-37.37104 -27.46434,-43.87011 -69.61358,-64.56807 -60.71807,-65.81735 1.32706,-0.18472 2.93117,-0.8215 4.67139,-1.7062 9.95034,-5.05538 24.93663,-19.4098 24.93663,-19.4098 0,0 14.35437,-14.98146 19.40977,-24.93669 0.88468,-1.74023 1.52146,-3.33949 1.70618,-4.66652 1.24926,-8.89556 21.95203,33.24894 65.81232,60.71334 0,0 26.95881,12.52182 37.3758,13.57179 0,0 52.66348,4.65193 123.76935,85.12506 0,0 17.30496,16.09462 -34.45922,67.57702 l -16.23071,16.23073 c -48.74554,48.75053 -67.5817,34.45932 -67.5817,34.45932 z M 145.08282,145.22499 c 28.34417,-28.33937 117.82443,-5.73106 117.82443,-5.73106 57.95218,15.28284 180.87087,146.90781 180.87087,146.90781 0,0 -11.03434,9.34275 -38.21188,38.21196 -27.17268,28.87408 8.48719,62.83759 8.48719,62.83759 l 257.40159,239.80069 c -5.05537,9.95524 -19.40975,24.94156 -19.40975,24.94156 0,0 -14.98631,14.34956 -24.93665,19.40495 L 387.30368,414.20114 c 0,0 -33.96343,-35.66485 -62.83257,-8.49211 -28.87402,27.17276 -38.21676,38.212 -38.21676,38.212 0,0 -131.61977,-122.91415 -146.90257,-180.87133 0,0 -22.61311,-89.48048 5.73104,-117.82471 z m 311.2153,361.3548 -234.02742,254.35739 31.44964,29.18629 231.91055,-252.05742 c -9.77768,-10.49534 -19.55508,-20.99092 -29.33277,-31.48626 z m 79.38609,-22.91589 70.17406,-76.27008 -31.44789,-29.1863 -70.11651,76.20731 c 10.46301,9.75019 20.92706,19.49917 31.39034,29.24907 z M 739.85335,183.82945 c 10.80507,38.44657 -14.11768,29.94675 -21.2529,37.69966 l -11.19051,12.16478 31.42195,29.1627 11.33292,-12.31744 c 6.85827,-7.45402 -3.39178,-31.87887 35.60791,-24.09637 C 894.63211,89.86519 866.83985,64.072082 739.85335,183.82945 Z m 34.42528,131.74408 -34.63693,-32.14543 -53.38017,58.02052 34.63485,32.14551 c 0,0 70.14951,75.30123 -77.82256,107.66537 C 801.36438,599.89251 1005.2411,378.30486 875.0124,229.17129 854.55024,379.8733 774.27863,315.57353 774.27863,315.57353 Z m -87.35254,-81.06911 -37.9594,-35.22598 -53.38236,58.01756 37.96158,35.22896 z m 42.07035,39.04414 -31.42495,-29.16156 -74.42888,80.89453 31.42296,29.16164 z m -129.76173,49.3618 -29.03269,31.55691 59.56857,55.28074 29.03184,-31.5538 z m -400.81831,435.63855 -29.03282,31.55389 59.56869,55.2838 29.03275,-31.55587 z m 6.62606,84.46965 -58.29373,63.35668 -31.424,-29.16263 58.29467,-63.35873 z" /></svg>
